<?xml version="1.0" standalone="no"?>
<!DOCTYPE svg PUBLIC "-//W3C//DTD SVG 20010904//EN"
 "http://www.w3.org/TR/2001/REC-SVG-20010904/DTD/svg10.dtd">
<svg version="1.0" xmlns="http://www.w3.org/2000/svg"
 width="300.000000pt" height="300.000000pt" viewBox="0 0 300.000000 300.000000"
 preserveAspectRatio="xMidYMid meet">
<metadata>
Created by potrace 1.14, written by Peter Selinger 2001-2017
</metadata>
<g transform="translate(0.000000,300.000000) scale(0.100000,-0.100000)"
fill="#000000" stroke="none">
<path d="M1660 2863 c-100 -25 -194 -100 -243 -193 l-23 -44 -225 -2 c-256 -1
-280 -6 -347 -78 -75 -80 -72 -42 -72 -923 0 -578 3 -796 12 -825 17 -57 88
-133 146 -155 44 -17 99 -18 847 -17 786 0 801 0 845 20 58 27 97 67 126 129
l24 50 0 788 c0 547 -3 802 -11 832 -14 57 -75 126 -137 156 -45 22 -58 23
-272 24 l-225 0 -25 46 c-34 62 -56 89 -112 131 -84 64 -204 88 -308 61z m139
-251 c49 -24 75 -64 74 -112 -2 -72 -51 -121 -122 -122 -67 -1 -131 62 -125
122 1 8 2 23 3 32 3 41 69 90 131 96 3 1 20 -7 39 -16z m-549 -362 l5 -125
498 0 497 0 0 122 c0 68 3 124 8 124 4 1 60 2 125 3 l117 1 -2 -750 -3 -750
-745 0 -745 0 -3 740 c-1 407 0 745 2 750 2 7 49 11 122 10 l119 0 5 -125z"/>
<path d="M1871 1705 c-145 -146 -267 -265 -272 -265 -5 0 -60 51 -122 114
l-114 114 -88 -88 -88 -88 202 -201 c110 -111 205 -201 210 -201 5 0 167 158
361 352 l351 351 -88 89 c-48 48 -88 88 -88 88 0 -1 -119 -120 -264 -265z"/>
<path d="M252 1215 c3 -852 4 -912 21 -946 25 -50 70 -94 125 -121 l47 -22
903 -1 902 0 0 125 0 125 -872 0 -873 0 -5 875 -5 875 -123 0 -122 1 2 -911z"/>
</g>
</svg>
